<svg id="_01-surgical_scissors" data-name="01-surgical scissors" xmlns="http://www.w3.org/2000/svg" viewBox="0 0 48 48"><title>01-surgical scissors</title><polygon points="14 47 11 15 17 15 14 47" style="fill:#e8eeff"/><path d="M39,35c2.76,0,5,2.69,5,6a6.391,6.391,0,0,1-6,6c-2.76,0-4-2.69-4-6S36.24,35,39,35Z" style="fill:#f7f9ff"/><path d="M36,31s0,4,3,4c-2.76,0-5,2.69-5,6,0-3.31-2.24-6-5-6,3,0,3-4,3-4V16l2,2,2-2Z" style="fill:#ccd3eb"/><path d="M36,16l-2,2-2-2c0-9-4-13-4-13V1C32.42,1,36,7.71,36,16Z" style="fill:#bccced"/><path d="M29,1.129V2s4,4,4,13l2,2,1-1C36,8.347,32.947,2.053,29,1.129Z" style="fill:#e8eeff"/><polygon points="36 18 36 16 34 18 32 16 32 18 34 20 36 18" style="fill:#a7bfe8"/><path d="M34,41c0,3.31-1.24,6-4,6a6.391,6.391,0,0,1-6-6c0-3.31,2.24-6,5-6S34,37.69,34,41Z" style="fill:#f7f9ff"/><path d="M11.1,9.16a3.978,3.978,0,0,1-2.15,1.69A3,3,0,0,1,8,11C5.79,11,4,8.76,4,6S5.79,1,8,1s4,2.24,4,5A5.806,5.806,0,0,1,11.1,9.16Z" style="fill:#f7f9ff"/><path d="M9,11l-.05-.15A3.978,3.978,0,0,0,11.1,9.16L13,12h2l1.9-2.84a3.978,3.978,0,0,0,2.15,1.69L19,11l-2,4H11Z" style="fill:#ccd3eb"/><path d="M16.9,9.16A5.806,5.806,0,0,1,16,6c0-2.76,1.79-5,4-5s4,2.24,4,5-1.79,5-4,5a3,3,0,0,1-.95-.15A3.978,3.978,0,0,1,16.9,9.16Z" style="fill:#f7f9ff"/><path d="M37.364,34.448A3.492,3.492,0,0,1,36.3,32.764,6.457,6.457,0,0,0,34,35.139a6.457,6.457,0,0,0-2.3-2.375,3.492,3.492,0,0,1-1.067,1.684A2.519,2.519,0,0,1,29,35a4.624,4.624,0,0,1,3.584,1.824A6.642,6.642,0,0,1,34,41a6.642,6.642,0,0,1,1.416-4.176A4.624,4.624,0,0,1,39,35,2.519,2.519,0,0,1,37.364,34.448Z" style="fill:#a7bfe8"/><path d="M17.291,9.67a4.643,4.643,0,0,1-.391-.51L15.673,11a6.2,6.2,0,0,0,.389.711A5.246,5.246,0,0,0,17.81,13.38l.9-1.795L19,11l.05-.15A3.812,3.812,0,0,1,17.291,9.67Z" style="fill:#a7bfe8"/><path d="M10.708,9.671A3.81,3.81,0,0,1,8.95,10.85L9,11l.293.585.9,1.793a5.236,5.236,0,0,0,1.749-1.672A6.357,6.357,0,0,0,12.327,11L11.1,9.16A4.634,4.634,0,0,1,10.708,9.671Z" style="fill:#a7bfe8"/><path d="M39,34a5.834,5.834,0,0,0-5,3.139A5.834,5.834,0,0,0,29,34c-3.309,0-6,3.14-6,7a7.38,7.38,0,0,0,7,7,4.4,4.4,0,0,0,4-2.434A4.4,4.4,0,0,0,38,48a7.38,7.38,0,0,0,7-7C45,37.14,42.309,34,39,34ZM30,46a5.42,5.42,0,0,1-5-5c0-2.757,1.794-5,4-5s4,2.243,4,5C33,42.173,32.784,46,30,46Zm8,0c-2.784,0-3-3.827-3-5,0-2.757,1.794-5,4-5s4,2.243,4,5A5.42,5.42,0,0,1,38,46Z" style="fill:#19B3BD"/><path d="M25,41c0-2.543,1.532-4.625,3.5-4.937A3.209,3.209,0,0,0,28,36c-2.206,0-4,2.243-4,5a5.42,5.42,0,0,0,5,5,2.665,2.665,0,0,0,.484-.043A5.462,5.462,0,0,1,25,41Z" style="fill:#bccced"/><path d="M39,34c-.15,0-.3.02-.442.033C41.606,34.363,44,37.36,44,41a7.407,7.407,0,0,1-6.476,6.97c.157.015.313.03.476.03a7.38,7.38,0,0,0,7-7C45,37.14,42.309,34,39,34Z" style="fill:#bccced"/><path d="M34,35.139a6.457,6.457,0,0,1,2.3-2.375A6.583,6.583,0,0,1,36,31V18l-2,2Z" style="fill:#e8eeff"/><polygon points="34 20 36 18 36 16 34 18 34 20" style="fill:#ccd7f2"/><path d="M8,0c2.757,0,5,2.691,5,6a6.762,6.762,0,0,1-1.062,3.706,5,5,0,0,1-2.685,2.1A3.988,3.988,0,0,1,8,12C5.243,12,3,9.309,3,6S5.243,0,8,0ZM8,10a1.982,1.982,0,0,0,.634-.1l.027-.008a3.009,3.009,0,0,0,1.6-1.278A4.839,4.839,0,0,0,11,6c0-2.206-1.346-4-3-4S5,3.794,5,6,6.346,10,8,10Z" style="fill:#19B3BD"/><path d="M20,0c2.757,0,5,2.691,5,6s-2.243,6-5,6a4.016,4.016,0,0,1-1.267-.2,4.987,4.987,0,0,1-2.671-2.093A6.764,6.764,0,0,1,15,6C15,2.691,17.243,0,20,0Zm0,10c1.654,0,3-1.794,3-4s-1.346-4-3-4-3,1.794-3,4a4.839,4.839,0,0,0,.738,2.615h0a3.009,3.009,0,0,0,1.6,1.278A2.055,2.055,0,0,0,20,10Z" style="fill:#19B3BD"/><path d="M20,0a4.358,4.358,0,0,0-.5.03C22.023.333,24,2.894,24,6c0,3.09-1.957,5.641-4.462,5.964A4.15,4.15,0,0,0,20,12c2.757,0,5-2.691,5-6S22.757,0,20,0Z" style="fill:#bccced"/><path d="M17.738,8.615h0A4.839,4.839,0,0,1,17,6c0-1.977,1.084-3.613,2.5-3.933A2.316,2.316,0,0,0,19,2c-1.654,0-3,1.794-3,4a4.839,4.839,0,0,0,.738,2.615h0a3.009,3.009,0,0,0,1.6,1.278A2.051,2.051,0,0,0,19,10a2.316,2.316,0,0,0,.5-.067c-.053-.014-.106-.022-.161-.04A3.009,3.009,0,0,1,17.738,8.615Z" style="fill:#7b8eb5"/><path d="M8,0a4.358,4.358,0,0,0-.5.03C10.023.333,12,2.894,12,6c0,3.09-1.957,5.641-4.462,5.964A4.15,4.15,0,0,0,8,12c2.757,0,5-2.691,5-6S10.757,0,8,0Z" style="fill:#bccced"/><path d="M5.738,8.615h0A4.839,4.839,0,0,1,5,6C5,4.023,6.084,2.387,7.5,2.067A2.316,2.316,0,0,0,7,2C5.346,2,4,3.794,4,6a4.839,4.839,0,0,0,.738,2.615h0a3.009,3.009,0,0,0,1.6,1.278A2.051,2.051,0,0,0,7,10a2.316,2.316,0,0,0,.5-.067c-.053-.014-.106-.022-.161-.04A3.009,3.009,0,0,1,5.738,8.615Z" style="fill:#7b8eb5"/><polygon points="10.5 14 11 15 11.094 16 12.094 16 16.906 16 17 15 17.5 14 10.5 14" style="fill:#19B3BD"/><polygon points="12.5 14 10.5 14 11 15 11.094 16 12.094 16 13.094 16 13 15 12.5 14" style="fill:#7b8eb5"/><polygon points="12.094 16 11.094 16 14 47 13 16 12.094 16" style="fill:#ccd3eb"/></svg>