<svg xmlns="http://www.w3.org/2000/svg" viewBox="0 0 32 32"><defs><style>.cls-1{fill:#68c7d3;}.cls-2{fill:#d1e6e9;}.cls-3{fill:#30acc2;}</style></defs><title>Heartbeat</title><g id="Heartbeat"><path class="cls-1" d="M22,7a7,7,0,0,0-6,3.41A7,7,0,0,0,3,14c0,8,13,15,13,15s13-7,13-15A7,7,0,0,0,22,7Z"/><polygon class="cls-2" points="15.93 23.38 12.93 16.38 11.62 19 1 19 1 17 10.38 17 13.07 11.63 16.07 18.63 18.88 13.01 21.54 17 31 17 31 19 20.46 19 19.12 16.99 15.93 23.38"/><circle class="cls-3" cx="26" cy="8" r="5"/><rect class="cls-2" x="23" y="7" width="6" height="2"/><rect class="cls-2" x="23" y="7" width="6" height="2" transform="translate(34 -18) rotate(90)"/></g></svg>